# xmcd
#
# Track frame offsets: 
#        150
#        17708
#        40138
#        59846
#        80566
#        96361
#        113917
#        141577
#        166614
#        182805
#        196745
#        214823
#
# Disc length: 3052 seconds
#
# Revision: 1
# Processed by: cddbd v1.5.2PL0 Copyright (c) Steve Scherf et al.
# Submitted via: ExactAudioCopy v0.99pb4
#
DISCID=ab0bea0c
DTITLE=Kim Simmonds - Out Of The Blue
DYEAR=2008
DGENRE=Acoustic Blues
TTITLE0=Ain't Going Down
TTITLE1=I Can Feel Your Love
TTITLE2=North Country Town
TTITLE3=Don't Tell Me to Smile
TTITLE4=Heart to Fill
TTITLE5=Out of the Blue
TTITLE6=Honeybee
TTITLE7=How Much More
TTITLE8=Careless Lover
TTITLE9=Best Thing
TTITLE10=Dreaming About You
TTITLE11=Untitled Track
EXTD=
EXTT0=
EXTT1=
EXTT2=
EXTT3=
EXTT4=
EXTT5=
EXTT6=
EXTT7=
EXTT8=
EXTT9=
EXTT10=
EXTT11=
PLAYORDER=
